# .PCD v0.7 - Point Cloud Data file format
VERSION 0.7
FIELDS x y z
SIZE 4 4 4
TYPE F F F
COUNT 1 1 1
WIDTH 136
HEIGHT 1
VIEWPOINT 0 0 0 1 0 0 0
POINTS 136
DATA ascii
0.32785833 -0.028930753 1.0226556
0.32882458 -0.030949995 1.0257819
0.33198518 -0.037767924 1.0363345
0.33248383 -0.038830981 1.0379801
0.32300246 -0.055098809 1.0626531
0.32190275 -0.055113755 1.0626433
0.32080305 -0.055128701 1.0626335
0.30622542 -0.055276521 1.0624269
0.26526979 -0.056110807 1.0624892
0.21543996 -0.056030057 1.0608839
0.11246659 -0.05922503 1.0627238
-0.087521091 -0.059718721 1.0575358
-0.18659672 -0.055486403 1.048098
-0.18860316 -0.054487742 1.0465064
-0.19567288 -0.049231805 1.0382336
-0.19552402 -0.048577867 1.0372349
-0.19536604 -0.047878437 1.0361667
-0.19520809 -0.047179319 1.0350989
-0.19505928 -0.046526916 1.0341026
-0.19490136 -0.045828961 1.0330366
-0.19432813 -0.043725945 1.0298276
-0.19403613 -0.042698763 1.0282606
-0.19289394 -0.038871497 1.0224235
-0.18995313 -0.028407767 1.0064596
-0.18967091 -0.027440757 1.0049846
-0.18926561 -0.026101962 1.0029429
-0.18886036 -0.024764292 1.000903
-0.18550612 -0.012841783 0.98271358
-0.18497281 -0.010946937 0.97982275
-0.18367836 -0.0065585449 0.97312945
-0.18040788 0.0044522658 0.95633608
-0.17980048 0.0065452456 0.95314354
-0.17943475 0.0077366158 0.95132685
-0.17906906 0.008926779 0.949512
-0.17572586 0.020246394 0.9322471
-0.17525265 0.021955695 0.9296391
-0.17359836 0.028139547 0.92020226
-0.17256775 0.031732194 0.91472179
-0.17223188 0.03282813 0.91305059
-0.17189598 0.033918329 0.91138822
-0.16857803 0.045410682 0.8938576
-0.16814497 0.046985291 0.89145499
-0.1677119 0.048547789 0.88907105
-0.1673959 0.04958073 0.88749588
-0.16707978 0.050603591 0.8859362
-0.16676377 0.051630147 0.88437086
-0.16457865 0.058953822 0.87320131
-0.1634464 0.062930174 0.86713523
-0.1626303 0.065882757 0.86263025
-0.16190898 0.068576545 0.85851943
-0.16141136 0.070261754 0.8559491
-0.15839842 0.080627859 0.84013706
-0.15687858 0.085901961 0.83209181
-0.15558007 0.090398692 0.82523239
-0.15538864 0.091072716 0.82420415
-0.15292539 0.09988571 0.81075823
-0.15274383 0.10053591 0.80976623
-0.15248752 0.10138583 0.80847007
-0.15057614 0.10767682 0.79887652
-0.1501482 0.10913288 0.79665565
-0.14767386 0.11798289 0.7831533
-0.14751245 0.11859046 0.78222609
-0.14595619 0.12394299 0.77406156
-0.14578474 0.12453857 0.77315307
-0.14387031 0.13109618 0.76315057
-0.14348249 0.13241847 0.76113373
-0.14085078 0.1417941 0.74682975
-0.14017025 0.14416602 0.74321145
-0.13979225 0.14541993 0.74129921
-0.13752839 0.15319729 0.72943604
-0.13659525 0.15650475 0.72439015
-0.13602026 0.15858744 0.72121239
-0.13420428 0.16501857 0.71140099
-0.13372497 0.16667478 0.70887464
-0.13277644 0.16994014 0.70389378
-0.13177232 0.17351788 0.69843537
-0.13091923 0.17634304 0.69412696
-0.13013364 0.17648244 0.69393647
-0.12863839 0.17663606 0.69374526
-0.11204708 0.17699498 0.69368792
-0.11060746 0.17701456 0.69370067
-0.09766686 0.17719056 0.69381541
-0.079694599 0.17743498 0.69397473
-0.078975797 0.17744476 0.69398111
-0.07825698 0.17745453 0.69398749
-0.07681936 0.17747408 0.69400024
-0.071786687 0.17754254 0.69404483
-0.0020382591 0.17782632 0.69568306
0.00084451586 0.17786554 0.69570857
0.028249687 0.17810495 0.69615602
0.028970493 0.17811477 0.6961624
0.041949071 0.17829126 0.6962775
0.070227839 0.17814735 0.69733894
0.11219111 0.17858477 0.69791543
0.15541996 0.17823219 0.69974142
0.17882244 0.1782839 0.70035779
0.20808347 0.17841074 0.70103312
0.22381681 0.17808244 0.70200449
0.22539073 0.17797056 0.70222288
0.2261916 0.17637552 0.7046935
0.23341948 0.16177534 0.72730505
0.23727587 0.15415481 0.73910958
0.23957482 0.14950886 0.74630481
0.24099316 0.14660522 0.75080115
0.24152048 0.14549391 0.75252157
0.24177924 0.14493741 0.75338292
0.24893132 0.13034578 0.7759791
0.25018078 0.127803 0.77991688
0.25288445 0.12245351 0.78820336
0.25317311 0.12184291 0.78914863
0.25921297 0.10968131 0.80798405
0.26258054 0.10308072 0.81820947
0.26382643 0.1007053 0.82189041
0.26445365 0.099378794 0.82394391
0.2671257 0.09356045 0.83294868
0.26744422 0.092883065 0.83399725
0.27453241 0.078573808 0.85615838
0.2805866 0.06648118 0.87488842
0.28147903 0.064746253 0.87757635
0.28272989 0.062247209 0.88144708
0.28990123 0.047832571 0.90377229
0.29123217 0.045180131 0.90788072
0.29218465 0.043310888 0.91077644
0.29430246 0.038987629 0.91747129
0.29469082 0.038170677 0.91873604
0.29507923 0.037348557 0.92000872
0.3010481 0.025061011 0.93903524
0.30475652 0.017563052 0.95064735
0.30706406 0.012854375 0.95793909
0.30833906 0.010174312 0.96208823
0.3164556 -0.0057788566 0.98680162
0.31827271 -0.0092645958 0.99220276
0.31941545 -0.011503004 0.9956705
0.31987369 -0.012464099 0.99715841
0.32033193 -0.013426103 0.99864775
0.32124823 -0.015348151 1.0016234
